<?xml version="1.0" standalone="no"?>
<!DOCTYPE svg PUBLIC "-//W3C//DTD SVG 20010904//EN"
 "http://www.w3.org/TR/2001/REC-SVG-20010904/DTD/svg10.dtd">
<svg version="1.0" xmlns="http://www.w3.org/2000/svg"
 width="2000.000000pt" height="2000.000000pt" viewBox="0 0 2000.000000 2000.000000"
 preserveAspectRatio="xMidYMid meet">
<metadata>
Created by potrace 1.14, written by Peter Selinger 2001-2017
</metadata>
<g transform="translate(0.000000,2000.000000) scale(0.100000,-0.100000)"
fill="#000000" stroke="none">
<path d="M9870 14943 c-120 -20 -267 -97 -370 -195 -13 -12 -28 -22 -33 -20
-5 1 -6 -2 -3 -7 4 -5 -5 -18 -19 -30 -15 -11 -26 -22 -26 -25 1 -3 -2 -6 -6
-7 -5 -1 -16 -5 -25 -10 -13 -7 -16 -6 -12 4 3 8 -2 14 -11 14 -8 0 -15 -4
-15 -9 0 -4 -5 -8 -11 -8 -8 0 -8 4 0 14 10 11 8 17 -6 25 -10 6 -14 11 -9 11
12 0 -14 30 -26 30 -6 0 -5 -7 2 -15 7 -9 10 -18 7 -21 -6 -7 -30 33 -34 58
-1 9 2 20 7 23 6 4 7 -1 3 -12 -6 -16 -5 -16 10 -4 14 11 15 16 5 29 -9 11 -9
13 -1 9 6 -4 18 -1 26 7 8 8 18 12 21 8 4 -3 4 1 0 11 -3 9 -11 14 -18 10 -6
-3 -7 -2 -3 3 8 9 12 10 38 13 6 0 8 8 5 17 -3 8 -2 12 4 9 9 -5 14 6 12 26
-1 3 6 6 13 6 11 0 12 -4 3 -14 -21 -26 -3 -21 32 9 l35 29 -35 -6 c-19 -3
-44 -8 -55 -10 -11 -2 -24 -4 -28 -4 -5 -1 -6 -5 -3 -10 4 -5 -4 -7 -16 -3
-14 3 -19 1 -14 -6 3 -6 2 -14 -4 -17 -6 -4 -10 -3 -9 2 3 20 -2 27 -11 13 -8
-13 -10 -13 -10 -1 0 11 -4 10 -16 -5 -8 -10 -13 -13 -9 -6 4 7 0 12 -9 12 -8
0 -17 -6 -19 -12 -4 -9 -6 -8 -7 2 0 10 -6 6 -16 -10 -8 -14 -13 -17 -10 -7 3
9 1 17 -4 17 -5 0 -14 -8 -19 -17 -7 -12 -10 -14 -11 -4 0 11 -3 11 -17 0 -11
-10 -14 -10 -9 -1 4 6 2 12 -3 12 -6 0 -11 -4 -11 -9 0 -6 -9 -8 -20 -6 -11 2
-20 -1 -20 -7 0 -6 -3 -8 -7 -5 -3 4 -12 2 -20 -4 -10 -9 -17 -8 -30 2 -11 10
-14 10 -9 2 5 -10 -2 -13 -26 -13 -19 0 -40 -6 -47 -12 -11 -11 -12 -10 -6 2
8 13 6 13 -7 2 -9 -7 -36 -14 -60 -15 -24 -2 -48 -6 -53 -9 -6 -3 -24 -9 -42
-12 -17 -4 -34 -14 -37 -22 -4 -12 -10 -12 -26 -4 -12 7 -20 7 -20 1 0 -5 -8
-10 -17 -10 -21 0 -68 -8 -68 -10 0 -3 -36 -12 -52 -13 -7 -1 -13 -5 -13 -10
0 -4 -16 -8 -35 -8 -19 0 -35 -4 -35 -9 0 -5 -16 -12 -35 -15 -19 -4 -39 -14
-44 -24 -7 -11 -11 -12 -11 -4 0 7 -5 10 -10 7 -6 -4 -7 -12 -3 -18 4 -7 0 -6
-10 2 -13 11 -17 11 -17 1 0 -8 -3 -11 -6 -8 -3 4 -17 0 -32 -8 -20 -10 -29
-11 -41 -1 -12 9 -13 9 -7 0 4 -8 1 -13 -9 -13 -9 0 -13 -4 -10 -10 3 -5 -1
-10 -10 -10 -10 0 -13 -5 -9 -12 6 -10 4 -10 -8 0 -14 11 -18 10 -27 -5 -8
-14 -10 -15 -11 -3 0 13 -1 13 -10 0 -5 -8 -10 -11 -10 -7 0 4 -10 2 -22 -5
-13 -7 -26 -11 -30 -10 -5 1 -8 -3 -8 -9 0 -5 -4 -8 -9 -5 -5 3 -11 0 -14 -8
-3 -7 -15 -16 -26 -19 -14 -3 -19 -1 -14 6 4 7 0 6 -10 -1 -9 -8 -21 -11 -27
-7 -5 3 -11 1 -11 -4 -1 -6 -2 -15 -3 -21 -1 -14 -13 -17 -23 -6 -5 5 -2 6 6
1 10 -6 12 -4 6 5 -6 10 -13 7 -27 -11 -11 -13 -17 -19 -14 -13 3 7 -3 9 -19
6 -14 -2 -25 -8 -25 -13 0 -5 -3 -8 -7 -8 -26 4 -45 -3 -40 -15 4 -9 -2 -13
-16 -12 -13 1 -22 -5 -22 -14 -1 -8 -7 -14 -13 -12 -7 1 -23 -3 -35 -10 -12
-7 -24 -13 -27 -14 -26 -6 -80 -36 -80 -45 0 -5 -4 -7 -10 -4 -5 3 -10 1 -10
-4 0 -6 -9 -11 -20 -11 -11 0 -23 -7 -26 -15 -4 -8 -10 -12 -15 -9 -5 3 -9 0
-9 -6 0 -7 -7 -10 -15 -6 -8 3 -15 1 -15 -4 0 -5 -9 -12 -20 -15 -11 -4 -18
-11 -15 -16 4 -5 -3 -9 -14 -9 -11 0 -27 -10 -35 -22 -9 -12 -16 -19 -16 -14
0 5 -12 1 -26 -9 -18 -12 -24 -13 -19 -4 3 8 1 7 -7 -2 -7 -9 -24 -19 -36 -23
-14 -5 -21 -13 -18 -21 3 -9 0 -12 -10 -8 -7 3 -14 0 -14 -6 0 -7 -8 -11 -17
-9 -10 2 -17 -2 -16 -9 2 -8 -4 -10 -15 -6 -14 6 -15 4 -4 -9 10 -13 10 -16 0
-15 -36 1 -48 -4 -48 -23 0 -11 -5 -20 -11 -20 -5 0 -7 5 -3 12 4 7 -7 2 -24
-11 -18 -12 -30 -26 -28 -29 2 -4 -3 -14 -12 -22 -14 -13 -15 -12 -9 5 6 18 5
18 -12 -2 -10 -12 -21 -20 -24 -17 -8 8 -58 -46 -52 -57 3 -5 -1 -6 -10 -3
-10 4 -24 -2 -36 -15 -11 -12 -25 -19 -30 -15 -5 3 -9 2 -8 -3 1 -4 1 -15 0
-23 -1 -13 -2 -13 -11 0 -8 13 -10 12 -10 -3 0 -9 -6 -16 -12 -15 -7 2 -12 -3
-10 -11 2 -8 -3 -11 -12 -8 -10 4 -13 1 -9 -9 3 -7 10 -14 16 -14 6 0 8 -3 5
-6 -4 -3 -16 -1 -27 6 -17 9 -22 8 -27 -5 -3 -8 -11 -12 -17 -8 -6 4 -7 1 -3
-6 5 -8 0 -14 -13 -18 -11 -3 -23 -14 -27 -25 -3 -11 -9 -17 -12 -14 -3 4 -12
-6 -19 -21 -12 -26 -12 -27 -7 -3 4 22 4 23 -6 7 -7 -10 -9 -25 -6 -32 3 -8 0
-17 -6 -21 -6 -4 -8 -3 -4 4 3 6 2 14 -4 17 -14 9 -64 -41 -55 -55 3 -5 -1
-10 -9 -10 -9 0 -16 -5 -16 -12 0 -6 -3 -9 -6 -6 -7 7 -49 -34 -57 -57 -4 -9
-11 -14 -16 -11 -5 3 -11 -1 -15 -9 -3 -8 -13 -15 -22 -15 -13 0 -14 -3 -4
-15 7 -8 16 -12 21 -9 5 3 17 0 26 -6 15 -9 15 -10 -5 -5 -22 6 -23 5 -12 -17
9 -19 8 -18 -10 5 -24 30 -40 35 -40 12 0 -8 -7 -15 -16 -15 -8 0 -13 -4 -9
-9 3 -5 -3 -12 -12 -15 -10 -3 -27 -19 -38 -36 -18 -28 -45 -45 -29 -18 4 7 3
8 -5 4 -6 -4 -9 -12 -6 -17 4 -5 -1 -9 -9 -9 -16 0 -22 -25 -8 -33 4 -2 1 -2
-7 0 -8 2 -11 -2 -8 -12 4 -8 1 -17 -5 -21 -7 -5 -8 -2 -3 6 5 8 3 11 -6 8 -8
-3 -13 -11 -12 -17 2 -6 -2 -11 -8 -11 -13 0 -49 -38 -49 -52 0 -5 -5 -6 -12
-2 -8 5 -9 2 -5 -10 5 -13 3 -17 -7 -13 -8 3 -20 -2 -28 -11 -9 -11 -10 -14 0
-8 6 4 12 2 12 -3 0 -6 -7 -11 -15 -11 -10 0 -15 -7 -13 -17 2 -12 -3 -18 -15
-16 -12 0 -16 -4 -13 -13 3 -8 0 -14 -5 -14 -6 0 -9 -9 -6 -20 3 -10 2 -19 -2
-18 -19 2 -31 -3 -26 -12 3 -5 0 -10 -8 -10 -8 0 -22 -15 -32 -34 -11 -19 -24
-32 -29 -28 -6 3 -5 -2 3 -11 12 -15 12 -17 -4 -11 -13 5 -16 4 -11 -4 4 -7 2
-12 -6 -12 -13 -1 -68 -72 -68 -89 0 -5 -7 -12 -16 -15 -9 -4 -14 -13 -10 -22
3 -8 2 -13 -3 -10 -5 3 -15 -2 -22 -11 -12 -14 -12 -16 1 -8 15 8 13 6 -40
-52 -11 -13 -17 -23 -14 -23 4 0 -4 -15 -18 -32 -13 -18 -30 -45 -37 -60 -8
-16 -18 -28 -23 -28 -5 0 -7 -4 -4 -9 3 -5 -1 -14 -9 -21 -8 -7 -12 -16 -9
-21 3 -5 -2 -12 -10 -15 -9 -3 -14 -9 -11 -14 2 -4 -5 -17 -16 -28 -13 -15
-15 -22 -7 -22 7 -1 4 -9 -9 -19 -12 -10 -19 -21 -16 -25 4 -3 1 -6 -5 -6 -6
0 -9 -9 -7 -19 3 -15 -1 -18 -12 -14 -11 4 -14 2 -9 -5 4 -7 3 -12 -2 -12 -5
0 -12 -9 -15 -20 -3 -13 -1 -18 5 -13 6 3 8 1 4 -5 -3 -5 0 -13 6 -16 7 -3 2
-3 -11 0 -16 4 -21 3 -17 -5 4 -6 0 -14 -8 -17 -9 -3 -14 -10 -11 -14 3 -5 -3
-13 -12 -19 -10 -6 -14 -11 -9 -11 5 0 3 -7 -4 -15 -7 -8 -9 -15 -4 -15 4 0
-1 -7 -12 -15 -10 -8 -15 -15 -10 -15 5 0 1 -9 -9 -20 -10 -11 -15 -20 -11
-20 3 0 0 -13 -9 -30 -9 -16 -13 -30 -10 -30 3 0 0 -6 -7 -14 -7 -8 -15 -13
-18 -11 -3 2 -6 -11 -7 -28 0 -17 -6 -33 -12 -35 -8 -3 -6 -9 6 -19 10 -8 12
-12 5 -8 -6 3 -15 -1 -18 -9 -3 -9 -11 -13 -18 -9 -6 3 -8 3 -4 -2 4 -4 -1
-22 -12 -40 -11 -18 -17 -35 -13 -38 3 -4 1 -13 -6 -20 -6 -8 -8 -23 -4 -32 4
-12 3 -16 -4 -12 -15 9 -24 -18 -11 -31 8 -8 4 -9 -11 -5 -19 5 -21 2 -17 -21
3 -14 1 -26 -4 -26 -4 0 -6 -10 -2 -22 3 -15 2 -19 -7 -14 -6 4 -10 4 -9 -1 1
-4 -3 -18 -10 -30 -6 -12 -13 -30 -15 -40 -4 -19 -13 -45 -27 -78 -5 -11 -10
-31 -12 -45 -2 -14 -10 -41 -20 -60 -12 -27 -14 -38 -5 -49 9 -11 9 -13 0 -8
-14 8 -28 -46 -17 -64 4 -8 3 -9 -4 -5 -8 5 -12 0 -12 -12 0 -11 -6 -35 -13
-53 -15 -38 -15 -48 -4 -66 6 -9 3 -11 -7 -7 -9 3 -16 2 -16 -4 0 -6 6 -13 13
-15 9 -4 8 -6 -2 -6 -11 -1 -11 -4 -1 -16 11 -13 10 -14 -6 -9 -10 4 -16 4
-12 0 3 -4 1 -25 -7 -45 -8 -25 -10 -43 -3 -54 6 -12 5 -17 -3 -17 -9 0 -9 -3
0 -14 9 -11 9 -16 0 -22 -8 -5 -10 -3 -4 7 5 8 4 10 0 6 -10 -8 -14 -27 -18
-73 -1 -18 -6 -30 -10 -27 -4 2 -6 -12 -4 -31 2 -20 0 -36 -4 -36 -5 0 -8 -3
-8 -7 1 -5 0 -10 -1 -13 -5 -12 -5 -68 0 -65 4 2 7 -2 7 -10 0 -8 -5 -11 -10
-8 -6 4 -8 0 -4 -10 3 -10 2 -17 -4 -17 -6 0 -7 -5 -4 -10 4 -6 1 -18 -7 -27
-9 -12 -9 -15 0 -9 6 4 12 3 12 -3 0 -5 -5 -13 -10 -16 -6 -4 -7 -11 -4 -17 4
-6 10 -5 16 3 8 11 9 11 5 -1 -2 -8 -10 -15 -18 -15 -10 0 -13 -11 -12 -35 1
-19 -3 -40 -9 -47 -7 -9 -7 -17 1 -27 9 -10 9 -16 1 -21 -8 -5 -8 -11 1 -21 6
-8 8 -14 4 -14 -4 0 -2 -7 5 -15 11 -13 10 -14 -3 -10 -12 5 -14 -1 -12 -30 1
-21 8 -41 16 -46 12 -7 11 -9 -2 -9 -9 0 -16 -6 -16 -12 -8 -126 -11 -157 -18
-168 -6 -9 -4 -11 6 -5 11 6 12 5 2 -5 -10 -11 -9 -16 5 -27 9 -8 11 -12 5 -8
-14 7 -14 6 -18 -47 -1 -23 2 -38 9 -38 6 0 5 -4 -3 -9 -9 -6 -11 -15 -6 -27
12 -29 14 -45 4 -38 -5 3 -9 -1 -9 -10 0 -8 6 -17 13 -19 9 -4 8 -8 -3 -16
-13 -10 -13 -12 0 -21 13 -9 13 -10 0 -10 -9 0 -11 -3 -5 -8 6 -4 10 -23 10
-42 0 -19 4 -38 10 -42 6 -5 6 -8 -2 -8 -7 0 -10 -7 -7 -15 4 -8 10 -13 14
-10 10 6 7 -21 -3 -31 -4 -4 -1 -14 6 -22 9 -13 9 -14 0 -8 -7 4 -13 2 -13 -3
0 -6 6 -11 13 -11 7 0 8 -3 2 -8 -12 -8 -15 -93 -3 -86 10 6 9 -4 -1 -31 -5
-13 -3 -31 6 -49 10 -20 11 -26 2 -21 -9 6 -10 2 -6 -16 4 -13 7 -30 7 -37 0
-7 4 -11 8 -8 4 2 9 -5 9 -17 2 -17 0 -19 -7 -7 -8 13 -10 12 -10 -2 0 -10 5
-18 11 -18 8 0 8 -4 0 -14 -9 -10 -9 -16 -1 -21 6 -4 9 -13 6 -21 -3 -8 -1
-14 4 -14 6 0 10 -5 10 -11 0 -5 -4 -7 -10 -4 -11 7 -2 -23 12 -42 5 -7 5 -14
-2 -18 -7 -4 -8 -11 -2 -18 5 -7 8 -20 7 -29 -2 -10 1 -18 6 -18 6 0 8 -4 4
-9 -3 -5 -2 -12 3 -15 5 -3 7 -20 6 -38 -1 -18 3 -40 11 -48 12 -13 15 -35 16
-93 0 -10 5 -17 12 -14 9 3 12 -11 10 -49 0 -30 2 -54 7 -54 4 0 7 -14 6 -31
-1 -16 2 -33 7 -36 6 -3 7 -1 3 5 -3 6 -2 13 3 16 10 7 9 -19 -1 -30 -4 -3 0
-21 8 -40 8 -19 12 -39 8 -45 -3 -6 3 -13 15 -16 12 -3 21 -10 21 -15 0 -5 -5
-6 -11 -2 -8 4 -8 0 0 -15 7 -11 9 -21 5 -21 -4 0 1 -10 12 -22 10 -12 13 -18
6 -14 -10 6 -11 4 -4 -10 6 -11 15 -38 21 -61 6 -22 19 -58 28 -80 16 -37 18
-44 21 -71 1 -7 7 -10 13 -6 7 4 7 -1 -1 -16 -11 -20 -10 -21 12 -15 19 5 20
4 8 -5 -12 -9 -12 -13 -2 -17 9 -3 10 -9 3 -17 -8 -9 -5 -19 10 -34 11 -12 15
-22 9 -22 -5 0 -10 -5 -10 -11 0 -5 5 -7 10 -4 6 4 10 -5 10 -19 0 -14 5 -26
12 -26 6 0 8 -3 5 -7 -4 -3 1 -12 11 -20 9 -8 11 -12 5 -8 -7 3 -13 1 -13 -4
0 -6 5 -11 11 -11 6 0 9 -6 6 -14 -3 -8 1 -17 8 -20 8 -3 12 -12 9 -19 -3 -8
2 -21 10 -30 8 -8 12 -17 9 -21 -4 -3 0 -6 8 -6 11 0 11 -2 -1 -10 -9 -6 -10
-10 -3 -10 6 0 14 -14 18 -30 4 -17 10 -28 14 -26 4 3 8 -5 8 -16 1 -12 8 -25
15 -29 7 -5 10 -9 5 -9 -4 0 16 -45 44 -100 29 -56 56 -97 62 -93 6 3 7 1 3
-6 -13 -21 208 -386 227 -374 6 3 7 1 3 -6 -8 -12 53 -103 184 -276 98 -130
131 -166 143 -158 6 3 7 1 3 -6 -10 -16 72 -110 279 -316 209 -210 321 -309
336 -299 7 4 9 3 6 -3 -6 -10 0 -16 88 -89 53 -43 300 -220 375 -268 25 -16
56 -37 70 -46 115 -77 438 -249 615 -327 275 -121 654 -250 841 -286 10 -2 26
-7 34 -10 34 -13 475 -94 570 -104 l45 -4 -32 24 c-18 13 -30 27 -26 30 3 4 1
7 -6 7 -15 0 -60 51 -61 68 0 7 -4 10 -10 7 -6 -4 -7 1 -3 12 6 16 5 17 -13 3
-10 -8 -16 -10 -11 -5 4 4 0 20 -10 34 -14 22 -14 24 -1 13 11 -9 18 -10 23
-2 3 5 1 10 -4 10 -6 0 -11 5 -11 11 0 5 4 8 9 5 5 -3 12 1 15 10 5 13 9 14
21 4 20 -17 19 -5 -2 28 -15 22 -15 25 -2 15 19 -15 30 -8 22 15 -4 14 -3 15
5 2 7 -9 7 -18 1 -26 -11 -13 -1 -46 12 -39 4 3 6 11 3 18 -2 7 4 17 14 24 14
8 19 8 19 0 0 -7 4 -20 8 -29 5 -14 2 -16 -14 -13 -14 2 -19 0 -15 -7 5 -7 2
-8 -6 -3 -8 5 -11 4 -6 -3 4 -7 0 -10 -12 -7 -11 2 -19 -3 -19 -11 0 -8 4 -14
9 -14 5 0 6 -5 3 -11 -4 -6 -14 -8 -22 -5 -8 4 -11 1 -8 -5 4 -6 14 -8 22 -5
8 3 24 1 36 -5 22 -11 22 -11 0 10 -27 26 -32 50 -6 30 9 -8 14 -9 11 -4 -3 6
0 16 8 23 11 10 14 10 14 0 0 -8 5 -6 11 5 5 9 15 17 21 17 7 0 6 -6 -2 -15
-7 -9 -10 -18 -6 -22 3 -3 6 -1 6 6 0 7 5 9 10 6 6 -4 7 -11 4 -17 -4 -7 -2
-8 4 -4 7 4 23 -4 37 -18 14 -15 28 -26 31 -26 3 0 24 -15 47 -33 105 -82 210
-117 374 -124 226 -10 373 47 552 216 25 24 45 48 43 53 -1 5 2 7 8 3 5 -3 10
0 10 7 0 7 6 2 13 -12 10 -19 20 -25 42 -23 26 2 27 1 7 -5 -13 -4 -23 -11
-23 -17 1 -5 -10 -9 -24 -9 -14 1 -25 -3 -25 -8 0 -5 -4 -6 -10 -3 -5 3 -10 2
-10 -3 0 -6 7 -13 16 -16 8 -3 13 -2 10 3 -8 12 11 18 49 17 17 -1 36 5 43 14
8 9 7 3 -3 -17 -18 -38 -19 -47 -3 -37 7 4 1 -7 -11 -25 -13 -18 -30 -35 -37
-38 -8 -3 -12 -8 -10 -12 2 -3 -14 -20 -36 -36 -26 -20 -35 -31 -25 -33 21 -4
367 54 502 84 567 127 1058 322 1525 608 99 60 314 203 345 228 6 5 46 36 90
69 84 64 86 65 180 144 103 86 303 272 361 335 13 14 49 52 81 86 32 33 76 80
97 104 60 65 250 304 293 368 21 32 55 80 75 107 101 137 272 436 383 669 193
404 329 830 409 1286 16 89 19 113 36 250 40 347 43 817 5 1130 -2 19 -7 60
-10 90 -53 482 -232 1077 -467 1552 -198 400 -443 768 -732 1097 -141 161
-523 524 -552 524 -7 0 -12 4 -11 8 5 18 -279 232 -296 223 -7 -4 -9 -4 -5 1
12 13 -127 106 -149 99 -13 -4 -14 -3 -5 4 11 7 6 14 -21 31 -39 24 -54 26
-59 9 -3 -7 -7 -5 -11 6 -4 10 -3 15 3 11 6 -3 10 -2 10 2 0 13 -59 45 -70 38
-6 -4 -9 -1 -8 7 2 8 -4 12 -16 10 -11 -2 -15 1 -11 7 5 10 -14 16 -37 12 -5
0 -8 6 -8 16 0 9 -3 13 -6 10 -4 -4 -19 2 -33 12 -14 10 -41 24 -58 32 -18 8
-33 18 -33 22 0 5 -5 5 -11 2 -6 -4 -16 1 -23 11 -10 13 -15 14 -21 4 -6 -9
-4 -11 5 -5 9 5 11 4 6 -4 -4 -6 -12 -9 -17 -5 -5 3 -7 9 -5 13 3 4 1 13 -5
21 -6 10 -9 11 -9 3 0 -7 -5 -13 -11 -13 -5 0 -7 5 -3 12 5 8 2 9 -9 5 -9 -3
-19 -1 -23 5 -5 7 -2 8 6 3 9 -6 11 -4 6 4 -5 7 -14 10 -21 7 -7 -2 -16 2 -19
10 -3 8 -12 14 -21 14 -8 0 -15 6 -15 13 0 8 -4 7 -10 -3 -6 -10 -10 -11 -10
-2 0 6 -7 12 -15 12 -8 0 -15 5 -15 10 0 6 -3 9 -7 9 -24 -4 -43 2 -37 12 4 7
-1 7 -16 -1 -15 -8 -20 -8 -16 -1 4 6 2 11 -4 11 -6 0 -8 5 -4 13 5 8 2 8 -9
-2 -12 -9 -17 -10 -17 -2 0 7 -4 10 -9 7 -5 -3 -11 1 -15 9 -3 9 -12 12 -22 8
-12 -4 -15 -3 -10 5 5 8 1 10 -10 5 -13 -5 -15 -3 -9 8 4 8 5 11 0 7 -4 -4
-15 -2 -23 5 -13 10 -15 9 -9 -6 4 -11 3 -16 -3 -12 -6 3 -10 12 -10 20 0 8
-7 11 -19 8 -11 -3 -21 2 -25 12 -5 14 -9 15 -22 4 -12 -10 -15 -10 -12 1 2 7
-3 15 -11 18 -8 3 -11 0 -7 -7 5 -7 1 -9 -8 -5 -9 3 -13 11 -9 17 4 6 0 8 -10
4 -8 -3 -21 1 -28 9 -6 8 -20 12 -29 9 -10 -3 -25 2 -34 10 -12 12 -16 13 -16
3 0 -10 -3 -9 -10 2 -5 8 -10 12 -10 7 0 -4 -11 0 -26 9 -14 9 -39 17 -57 16
-23 -1 -27 2 -17 8 11 7 7 10 -15 10 -17 0 -37 6 -44 13 -11 10 -12 9 -6 -2 5
-8 -7 -4 -25 9 -18 13 -30 19 -26 12 4 -7 3 -12 -3 -12 -5 0 -13 5 -16 10 -3
6 -15 10 -25 10 -10 0 -21 6 -23 13 -4 9 -6 8 -6 -2 -1 -11 -4 -11 -16 -1 -12
10 -18 10 -32 -1 -9 -8 -14 -9 -11 -3 4 5 -6 15 -23 21 -16 6 -27 7 -23 2 7
-12 -48 12 -59 26 -5 6 -7 0 -4 -13 3 -12 1 -20 -4 -16 -5 3 -9 11 -9 18 0 8
-11 14 -25 15 -47 3 -55 4 -55 12 0 4 -7 10 -16 13 -12 5 -15 2 -10 -11 5 -16
5 -16 -6 -2 -7 9 -23 15 -36 14 -13 -1 -26 3 -29 8 -4 6 -1 7 7 2 8 -5 11 -4
7 2 -4 6 -21 9 -39 9 -18 -1 -36 2 -40 8 -4 6 -13 5 -23 -4 -13 -11 -16 -11
-13 0 2 9 -6 14 -22 14 -14 0 -27 3 -30 6 -8 11 -271 53 -278 45 -4 -4 -1 -10
7 -13 8 -3 24 -15 36 -28 12 -13 27 -24 34 -24 6 0 11 -9 11 -19 0 -19 25 -37
45 -32 6 2 7 -1 3 -4 -4 -4 3 -16 15 -27 l22 -19 -27 17 c-16 9 -28 12 -28 8
0 -12 20 -41 20 -30 0 5 6 3 13 -3 8 -6 17 -7 22 -3 4 4 2 -3 -6 -15 -12 -20
-14 -20 -26 -5 -12 16 -13 16 -7 0 4 -12 1 -18 -7 -18 -10 -1 -9 -5 4 -14 21
-16 22 -23 2 -23 -8 0 -12 4 -10 8 3 3 -2 12 -9 18 -10 8 -16 9 -21 1 -3 -5 0
-10 7 -10 9 0 9 -3 -2 -10 -9 -6 -10 -10 -3 -10 6 0 11 -8 10 -18 0 -10 -7
-19 -14 -19 -9 0 -10 4 -2 13 7 8 7 14 -1 19 -6 3 -8 11 -5 16 4 5 2 9 -3 9
-16 0 -22 -13 -11 -26 7 -8 6 -14 -2 -20 -7 -4 -9 -3 -5 4 3 6 2 13 -4 17 -5
3 -10 0 -11 -7 0 -7 -5 -3 -11 10 -6 12 -15 22 -20 22 -4 0 -8 5 -8 11 0 8 4
9 13 0 8 -6 17 -8 21 -4 4 4 4 -1 0 -12 -7 -17 -6 -18 8 -5 13 13 14 16 2 23
-11 6 -12 13 -4 30 11 21 11 21 -4 3 -25 -31 -46 -28 -88 15 -21 21 -41 39
-44 39 -3 0 -22 13 -42 29 -67 51 -159 94 -252 116 -60 14 -228 18 -290 8z
m855 -62 c3 -5 2 -12 -3 -15 -5 -3 -9 1 -9 9 0 17 3 19 12 6z m-844 -42 c11
-21 0 -26 -18 -8 -9 9 -12 7 -10 -9 1 -12 7 -21 13 -19 7 1 12 -2 11 -8 -3
-12 -38 -15 -59 -4 -10 5 -19 5 -22 0 -3 -5 3 -11 14 -14 11 -3 20 -11 19 -19
0 -10 -2 -10 -6 0 -7 19 -29 14 -48 -10 -15 -22 -15 -21 0 6 16 27 16 29 1 23
-9 -4 -15 -3 -13 1 3 4 -1 12 -8 19 -19 17 -26 -7 -8 -25 11 -11 11 -17 2 -28
-7 -8 -15 -12 -18 -8 -3 4 0 9 7 11 15 6 6 23 -11 19 -7 -1 -9 -1 -4 1 4 3 4
9 1 14 -9 14 15 39 32 32 8 -3 14 0 14 6 0 14 71 50 87 44 8 -3 18 -14 24 -24z
m1496 -105 c-3 -3 -12 -4 -19 -1 -8 3 -5 6 6 6 11 1 17 -2 13 -5z m-2727 -8
c0 -2 -7 -7 -16 -10 -8 -3 -12 -2 -9 4 6 10 25 14 25 6z m2073 -19 c3 -8 -1
-14 -8 -14 -7 0 -11 6 -8 14 3 7 6 13 8 13 2 0 5 -6 8 -13z m-1433 -21 c0 -2
-7 -7 -16 -10 -8 -3 -12 -2 -9 4 6 10 25 14 25 6z m37 -12 c-3 -3 -12 -4 -19
-1 -8 3 -5 6 6 6 11 1 17 -2 13 -5z m-880 -20 c-3 -3 -12 -4 -19 -1 -8 3 -5 6
6 6 11 1 17 -2 13 -5z m943 -37 c0 -1 -11 -2 -24 -2 -14 0 -22 5 -19 12 4 9
10 10 24 2 10 -5 19 -11 19 -12z m-1236 -55 c3 -5 -1 -9 -9 -9 -8 0 -12 4 -9
9 3 4 7 8 9 8 2 0 6 -4 9 -8z m-74 -97 c7 -9 8 -15 2 -15 -5 0 -12 7 -16 15
-3 8 -4 15 -2 15 2 0 9 -7 16 -15z m-29 -28 c-10 -9 -11 -8 -5 6 3 10 9 15 12
12 3 -3 0 -11 -7 -18z m-181 -31 c0 -2 -7 -7 -16 -10 -8 -3 -12 -2 -9 4 6 10
25 14 25 6z m-127 -60 c7 4 8 3 4 -1 -15 -17 -33 -12 -34 9 -2 19 -1 19 8 3 6
-9 16 -14 22 -11z m-679 -424 c3 -5 -1 -9 -9 -9 -8 0 -12 4 -9 9 3 4 7 8 9 8
2 0 6 -4 9 -8z m-55 -45 c0 -9 -2 -8 -6 1 -2 6 -10 9 -15 6 -7 -4 -8 -2 -4 5
9 13 26 5 25 -12z m-38 -114 c13 -16 12 -17 -3 -4 -17 13 -22 21 -14 21 2 0
10 -8 17 -17z m-281 -147 c-7 -7 -13 -7 -20 0 -6 6 -3 10 10 10 13 0 16 -4 10
-10z m-26 -122 c3 -8 2 -12 -4 -9 -6 3 -10 10 -10 16 0 14 7 11 14 -7z m-34
-10 c0 -8 -19 -13 -24 -6 -3 5 1 9 9 9 8 0 15 -2 15 -3z m-90 -80 c0 -8 -19
-13 -24 -6 -3 5 1 9 9 9 8 0 15 -2 15 -3z m-94 -89 c1 -8 -2 -15 -6 -15 -5 0
-8 9 -7 20 1 21 10 18 13 -5z m78 -81 c3 -8 2 -12 -4 -9 -6 3 -10 10 -10 16 0
14 7 11 14 -7z m-394 -231 c0 -15 -2 -16 -10 -3 -8 13 -10 13 -10 -2 0 -9 -5
-20 -12 -24 -6 -4 -9 -3 -6 2 3 5 8 17 11 27 4 9 11 17 17 17 5 0 10 -8 10
-17z m35 -23 c3 -5 1 -10 -4 -10 -6 0 -11 5 -11 10 0 6 2 10 4 10 3 0 8 -4 11
-10z m-125 -64 c0 -2 -8 -10 -17 -17 -16 -13 -17 -12 -4 4 13 16 21 21 21 13z
m-10 -56 c0 -5 -2 -10 -4 -10 -3 0 -8 5 -11 10 -3 6 -1 10 4 10 6 0 11 -4 11
-10z m-62 -65 c-3 -3 -9 2 -12 12 -6 14 -5 15 5 6 7 -7 10 -15 7 -18z m-43
-125 c-3 -5 -12 -10 -18 -10 -7 0 -6 4 3 10 19 12 23 12 15 0z m-278 -407 c-4
-3 1 -16 10 -27 18 -21 18 -21 -4 -2 -25 21 -30 36 -11 36 6 0 8 -3 5 -7z m58
-3 c3 -5 1 -10 -4 -10 -6 0 -11 5 -11 10 0 6 2 10 4 10 3 0 8 -4 11 -10z
m-175 -236 c0 -8 -19 -13 -24 -6 -3 5 1 9 9 9 8 0 15 -2 15 -3z m-50 -138 c0
-2 -8 -10 -17 -17 -16 -13 -17 -12 -4 4 13 16 21 21 21 13z m34 -4 c3 -5 -1
-9 -9 -9 -8 0 -12 4 -9 9 3 4 7 8 9 8 2 0 6 -4 9 -8z m50 0 c3 -5 -1 -9 -9 -9
-8 0 -12 4 -9 9 3 4 7 8 9 8 2 0 6 -4 9 -8z m-79 -62 c3 -5 1 -10 -4 -10 -6 0
-11 5 -11 10 0 6 2 10 4 10 3 0 8 -4 11 -10z m-134 -193 c-10 -9 -11 -8 -5 6
3 10 9 15 12 12 3 -3 0 -11 -7 -18z m19 -87 c0 -5 -5 -10 -11 -10 -5 0 -7 5
-4 10 3 6 8 10 11 10 2 0 4 -4 4 -10z m-90 -195 c-7 -9 -15 -13 -17 -11 -6 6
20 36 26 30 2 -2 -2 -10 -9 -19z m-195 -1324 c3 -5 2 -12 -3 -15 -5 -3 -9 1
-9 9 0 17 3 19 12 6z m16 -404 c-6 -8 -7 -18 -3 -22 4 -5 1 -5 -6 -1 -10 6
-10 11 -1 22 6 8 14 14 16 14 3 0 0 -6 -6 -13z m109 -677 c0 -5 -5 -10 -11
-10 -5 0 -7 5 -4 10 3 6 8 10 11 10 2 0 4 -4 4 -10z m5417 -3595 c0 -8 -4 -12
-9 -9 -5 3 -6 10 -3 15 9 13 12 11 12 -6z m-1341 -29 c0 -14 -3 -23 -7 -20 -6
3 -6 22 0 42 3 10 7 -2 7 -22z m1339 -4 c-3 -3 -11 0 -18 7 -9 10 -8 11 6 5
10 -3 15 -9 12 -12z m55 8 c-8 -5 -19 -10 -25 -10 -5 0 -3 5 5 10 8 5 20 10
25 10 6 0 3 -5 -5 -10z m-878 -96 c-9 -16 -10 -14 -9 8 1 15 6 23 11 18 4 -4
4 -16 -2 -26z m888 21 c0 -8 -4 -15 -10 -15 -5 0 -7 7 -4 15 4 8 8 15 10 15 2
0 4 -7 4 -15z m-941 2 c-2 -1 -13 -9 -24 -17 -19 -14 -19 -14 -6 3 7 9 18 17
24 17 6 0 8 -1 6 -3z m-8 -44 c-8 -15 -10 -15 -11 -2 0 17 10 32 18 25 2 -3
-1 -13 -7 -23z m114 17 c3 -6 -1 -7 -9 -4 -18 7 -21 14 -7 14 6 0 13 -4 16
-10z m-15 -15 c0 -12 -19 -12 -23 0 -4 9 -1 12 9 8 7 -3 14 -7 14 -8z m-45
-12 c18 -14 18 -15 1 -9 -14 5 -17 2 -12 -9 4 -13 2 -14 -14 -5 -21 11 -25 22
-13 33 9 10 16 8 38 -10z m90 -12 c3 -6 -4 -19 -16 -30 -17 -16 -25 -18 -45
-9 -13 6 -24 15 -24 19 0 12 26 18 40 9 16 -10 42 -1 34 11 -3 5 -3 9 0 9 3 0
7 -4 11 -9z"/>
<path d="M9776 14814 c-8 -20 0 -32 14 -18 5 5 5 15 1 22 -6 11 -10 10 -15 -4z"/>
<path d="M9806 14815 c5 -12 9 -13 20 -4 12 10 13 9 8 -5 -3 -9 -2 -16 4 -16
20 0 5 35 -16 38 -17 3 -20 -1 -16 -13z"/>
<path d="M9760 5189 c0 -5 5 -7 10 -4 6 3 10 8 10 11 0 2 -4 4 -10 4 -5 0 -10
-5 -10 -11z"/>
<path d="M9827 5159 c7 -7 15 -10 18 -7 3 3 -2 9 -12 12 -14 6 -15 5 -6 -5z"/>
<path d="M9370 14819 c0 -5 5 -7 10 -4 6 3 10 8 10 11 0 2 -4 4 -10 4 -5 0
-10 -5 -10 -11z"/>
<path d="M10592 14804 c3 -3 12 -6 20 -8 7 -1 19 -5 26 -9 7 -5 12 -4 12 2 0
6 -3 11 -7 12 -5 0 -19 3 -32 5 -14 2 -22 2 -19 -2z"/>
<path d="M9320 14790 c-8 -5 -10 -10 -5 -10 6 0 17 5 25 10 8 5 11 10 5 10 -5
0 -17 -5 -25 -10z"/>
<path d="M10597 14765 c10 -13 21 -25 25 -25 4 0 5 -7 1 -16 -5 -13 -7 -13
-14 -2 -6 9 -9 9 -9 1 0 -17 18 -26 33 -16 6 4 17 8 22 8 13 0 14 26 2 43 -7
9 -13 9 -23 1 -11 -9 -15 -8 -20 4 -3 9 -12 18 -20 21 -11 4 -10 0 3 -19z m59
-29 c1 -7 -4 -13 -11 -13 -7 0 -11 7 -10 16 2 9 4 18 4 20 2 8 15 -10 17 -23z"/>
<path d="M9377 14774 c-3 -3 -3 -13 0 -21 5 -13 2 -13 -25 1 -28 15 -32 14
-54 -5 -12 -11 -17 -18 -10 -14 12 6 65 -28 56 -37 -2 -3 2 -11 11 -18 10 -8
15 -9 15 -1 0 6 -5 11 -11 11 -5 0 -7 5 -3 11 4 8 11 4 19 -11 14 -26 47 -38
38 -14 -3 8 1 14 8 14 11 0 11 2 -1 9 -8 6 -18 7 -22 5 -13 -8 -9 10 5 26 6 8
2 6 -10 -4 -13 -11 -23 -14 -23 -8 0 6 4 13 9 17 6 3 9 14 8 25 -1 22 -1 22
-10 14z m-14 -51 c-5 -12 -7 -12 -14 -1 -5 7 -9 9 -9 4 0 -5 -7 -3 -15 4 -22
18 -8 31 20 18 14 -6 21 -16 18 -25z m40 -40 c-3 -7 -6 -13 -8 -13 -2 0 -5 6
-8 13 -3 8 1 14 8 14 7 0 11 -6 8 -14z"/>
<path d="M10560 14769 c0 -5 -4 -8 -9 -4 -5 3 -12 2 -15 -3 -2 -4 6 -8 19 -8
15 0 21 5 18 13 -6 16 -13 17 -13 2z"/>
<path d="M9455 14761 c-3 -5 -2 -12 3 -15 5 -3 9 1 9 9 0 17 -3 19 -12 6z"/>
<path d="M10548 14733 c7 -3 16 -2 19 1 4 3 -2 6 -13 5 -11 0 -14 -3 -6 -6z"/>
<path d="M9420 14718 c0 -4 7 -8 15 -8 8 0 15 4 15 8 0 5 -7 9 -15 9 -8 0 -15
-4 -15 -9z"/>
<path d="M9405 5321 c-3 -5 -1 -12 5 -16 5 -3 10 1 10 9 0 18 -6 21 -15 7z"/>
<path d="M10562 5298 c-20 -20 -14 -25 22 -24 32 1 33 2 19 19 -19 20 -25 21
-41 5z m22 -6 c3 -5 -1 -9 -9 -9 -8 0 -12 4 -9 9 3 4 7 8 9 8 2 0 6 -4 9 -8z"/>
<path d="M9337 5285 c-4 -8 -1 -15 6 -15 7 0 4 -5 -5 -11 -10 -5 -18 -15 -18
-21 0 -7 4 -7 13 1 8 6 16 9 19 6 3 -3 4 6 4 19 -2 31 -12 42 -19 21z"/>
<path d="M9421 5253 c-1 -6 4 -15 9 -18 6 -4 7 -12 4 -18 -4 -7 -3 -8 1 -4 12
10 16 39 5 32 -5 -3 -11 1 -13 7 -4 9 -6 10 -6 1z"/>
<path d="M10507 5239 c7 -7 15 -10 18 -7 3 3 -2 9 -12 12 -14 6 -15 5 -6 -5z"/>
<path d="M10595 5240 c-3 -5 -1 -10 4 -10 6 0 11 5 11 10 0 6 -2 10 -4 10 -3
0 -8 -4 -11 -10z"/>
<path d="M10625 5240 c-3 -5 -3 -10 1 -10 4 0 -1 -7 -12 -15 -19 -15 -19 -15
1 -9 16 6 18 5 8 -7 -7 -7 -13 -18 -13 -23 0 -6 7 -2 15 8 8 10 12 22 10 27
-3 4 -1 10 5 14 5 3 10 10 10 16 0 12 -17 12 -25 -1z"/>
<path d="M9496 5222 c-3 -5 1 -9 9 -9 8 0 12 4 9 9 -3 4 -7 8 -9 8 -2 0 -6 -4
-9 -8z"/>
<path d="M10547 5219 c7 -7 15 -10 18 -7 3 3 -2 9 -12 12 -14 6 -15 5 -6 -5z"/>
<path d="M10581 5204 c0 -11 3 -14 6 -6 3 7 2 16 -1 19 -3 4 -6 -2 -5 -13z"/>
<path d="M9393 5198 c1 -7 -4 -12 -11 -10 -8 1 -11 -2 -7 -8 5 -8 11 -8 21 1
7 6 11 15 8 20 -8 13 -14 11 -11 -3z"/>
<path d="M10506 5198 c3 -5 10 -6 15 -3 13 9 11 12 -6 12 -8 0 -12 -4 -9 -9z"/>
<path d="M10550 5186 c0 -2 7 -7 16 -10 8 -3 12 -2 9 4 -6 10 -25 14 -25 6z"/>
</g>
</svg>
